/* XPM */
static char *img[] = {
"33 33 3 1",
"  c black",
". c #8C0000",
"= c #FDFDFD",
"                                 "
"                                 "
"                                 "
"                                 "
"                                 "
"                                 "
"                                 "
"                                 "
"                                 "
"                                 "
"                                 "
"                                 "
"                                 "
"                                 "
"                                 "
"      ======         ======      "
"      ======         ======      "
"      ======         ======      "
"   ============   ============   "
"   ============   ============   "
"   ============   ============   "
"   ===......===   ===......===   "
"   ===......===   ===......===   "
"   ===......===   ===......===   "
"      ......         ......      "
"      ......         ......      "
"      ......         ......      "
"                                 "
"                                 "
"                                 "
"                                 "
"                                 "
"                                 "
};