/* XPM */
static char *img[] = {
"33 33 4 1",
"  c black",
". c #8C0000",
"X c #F30000",
"= c #FDFDFD",
"            XXXXXXXXX            "
"            XXXXXXXXX            "
"            XXXXXXXXX            "
"      ......XXXXXXXXX......      "
"      ......XXXXXXXXX......      "
"      ......XXXXXXXXX......      "
"   ===......===XXX===......===   "
"   ===......===XXX===......===   "
"   ===......===XXX===......===   "
"   ============XXX============   "
"   ============XXX============   "
"   ============XXX============   "
"XXXXXX======XXXXXXXXX======XXXXXX"
"XXXXXX======XXXXXXXXX======XXXXXX"
"XXXXXX======XXXXXXXXX======XXXXXX"
"XXXXXXXXXXXXXXXXXXXXXXXXXXXXXXXXX"
"XXXXXXXXXXXXXXXXXXXXXXXXXXXXXXXXX"
"XXXXXXXXXXXXXXXXXXXXXXXXXXXXXXXXX"
"XXXXXXXXXXXXXXXXXXXXXXXXXXXXXXXXX"
"XXXXXXXXXXXXXXXXXXXXXXXXXXXXXXXXX"
"XXXXXXXXXXXXXXXXXXXXXXXXXXXXXXXXX"
"XXXXXXXXXXXXXXXXXXXXXXXXXXXXXXXXX"
"XXXXXXXXXXXXXXXXXXXXXXXXXXXXXXXXX"
"XXXXXXXXXXXXXXXXXXXXXXXXXXXXXXXXX"
"XXXXXXXXXXXXXXXXXXXXXXXXXXXXXXXXX"
"XXXXXXXXXXXXXXXXXXXXXXXXXXXXXXXXX"
"XXXXXXXXXXXXXXXXXXXXXXXXXXXXXXXXX"
"XXXXXXXXXXXXXXXXXXXXXXXXXXXXXXXXX"
"XXXXXXXXXXXXXXXXXXXXXXXXXXXXXXXXX"
"XXXXXXXXXXXXXXXXXXXXXXXXXXXXXXXXX"
"   XXXXXX   XXXXXX   XXXXXX   XXX"
"   XXXXXX   XXXXXX   XXXXXX   XXX"
"   XXXXXX   XXXXXX   XXXXXX   XXX"
};