/* XPM */
static char *img[] = {
"33 33 4 1",
"  c black",
". c #8C0000",
"X c #F30000",
"= c #FDFDFD",
"            XXXXXXXXX            "
"            XXXXXXXXX            "
"            XXXXXXXXX            "
"      XXXXXXXXXXXXXXXXXXXXX      "
"      XXXXXXXXXXXXXXXXXXXXX      "
"      XXXXXXXXXXXXXXXXXXXXX      "
"   XXXXXXXXXXXXXXXXXXXXXXXXXXX   "
"   XXXXXXXXXXXXXXXXXXXXXXXXXXX   "
"   XXXXXXXXXXXXXXXXXXXXXXXXXXX   "
"   ======XXXXXXXXX======XXXXXX   "
"   ======XXXXXXXXX======XXXXXX   "
"   ======XXXXXXXXX======XXXXXX   "
"......======XXX......======XXXXXX"
"......======XXX......======XXXXXX"
"......======XXX......======XXXXXX"
"......======XXX......======XXXXXX"
"......======XXX......======XXXXXX"
"......======XXX......======XXXXXX"
"XXX======XXXXXXXXX======XXXXXXXXX"
"XXX======XXXXXXXXX======XXXXXXXXX"
"XXX======XXXXXXXXX======XXXXXXXXX"
"XXXXXXXXXXXXXXXXXXXXXXXXXXXXXXXXX"
"XXXXXXXXXXXXXXXXXXXXXXXXXXXXXXXXX"
"XXXXXXXXXXXXXXXXXXXXXXXXXXXXXXXXX"
"XXXXXXXXXXXXXXXXXXXXXXXXXXXXXXXXX"
"XXXXXXXXXXXXXXXXXXXXXXXXXXXXXXXXX"
"XXXXXXXXXXXXXXXXXXXXXXXXXXXXXXXXX"
"XXXXXXXXXXXXXXXXXXXXXXXXXXXXXXXXX"
"XXXXXXXXXXXXXXXXXXXXXXXXXXXXXXXXX"
"XXXXXXXXXXXXXXXXXXXXXXXXXXXXXXXXX"
"XXXXXX   XXXXXX   XXXXXX   XXXXXX"
"XXXXXX   XXXXXX   XXXXXX   XXXXXX"
"XXXXXX   XXXXXX   XXXXXX   XXXXXX"
};