/* XPM */
static char *img[] = {
"33 33 4 1",
"  c black",
". c #8C0000",
"X c #F30000",
"= c #FDFDFD",
"            XXXXXXXXX            "
"            XXXXXXXXX            "
"            XXXXXXXXX            "
"      XXXXXXXXXXXXXXXXXXXXX      "
"      XXXXXXXXXXXXXXXXXXXXX      "
"      XXXXXXXXXXXXXXXXXXXXX      "
"   XXXXXXXXXXXXXXXXXXXXXXXXXXX   "
"   XXXXXXXXXXXXXXXXXXXXXXXXXXX   "
"   XXXXXXXXXXXXXXXXXXXXXXXXXXX   "
"   XXXXXXXXXXXXXXXXXXXXXXXXXXX   "
"   XXXXXXXXXXXXXXXXXXXXXXXXXXX   "
"   XXXXXXXXXXXXXXXXXXXXXXXXXXX   "
"XXXXXXXXXXXXXXXXXXXXXXXXXXXXXXXXX"
"XXXXXXXXXXXXXXXXXXXXXXXXXXXXXXXXX"
"XXXXXXXXXXXXXXXXXXXXXXXXXXXXXXXXX"
"XXXXXX======XXXXXXXXX======XXXXXX"
"XXXXXX======XXXXXXXXX======XXXXXX"
"XXXXXX======XXXXXXXXX======XXXXXX"
"XXX============XXX============XXX"
"XXX============XXX============XXX"
"XXX============XXX============XXX"
"XXX===......===XXX===......===XXX"
"XXX===......===XXX===......===XXX"
"XXX===......===XXX===......===XXX"
"XXXXXX......XXXXXXXXX......XXXXXX"
"XXXXXX......XXXXXXXXX......XXXXXX"
"XXXXXX......XXXXXXXXX......XXXXXX"
"XXXXXXXXXXXXXXXXXXXXXXXXXXXXXXXXX"
"XXXXXXXXXXXXXXXXXXXXXXXXXXXXXXXXX"
"XXXXXXXXXXXXXXXXXXXXXXXXXXXXXXXXX"
"XXX   XXXXXX   XXXXXX   XXXXXX   "
"XXX   XXXXXX   XXXXXX   XXXXXX   "
"XXX   XXXXXX   XXXXXX   XXXXXX   "
};