/* XPM */
static char *img[] = {
"33 33 4 1",
"  c black",
"O c #E68A00",
"+ c #FFB13C",
"= c #FDFDFD",
"            +++++++++            "
"            +++++++++            "
"            +++++++++            "
"      OOOOOO+++++++++OOOOOO      "
"      OOOOOO+++++++++OOOOOO      "
"      OOOOOO+++++++++OOOOOO      "
"   ===OOOOOO===+++===OOOOOO===   "
"   ===OOOOOO===+++===OOOOOO===   "
"   ===OOOOOO===+++===OOOOOO===   "
"   ============+++============   "
"   ============+++============   "
"   ============+++============   "
"++++++======+++++++++======++++++"
"++++++======+++++++++======++++++"
"++++++======+++++++++======++++++"
"+++++++++++++++++++++++++++++++++"
"+++++++++++++++++++++++++++++++++"
"+++++++++++++++++++++++++++++++++"
"+++++++++++++++++++++++++++++++++"
"+++++++++++++++++++++++++++++++++"
"+++++++++++++++++++++++++++++++++"
"+++++++++++++++++++++++++++++++++"
"+++++++++++++++++++++++++++++++++"
"+++++++++++++++++++++++++++++++++"
"+++++++++++++++++++++++++++++++++"
"+++++++++++++++++++++++++++++++++"
"+++++++++++++++++++++++++++++++++"
"+++++++++++++++++++++++++++++++++"
"+++++++++++++++++++++++++++++++++"
"+++++++++++++++++++++++++++++++++"
"++++++   ++++++   ++++++   ++++++"
"++++++   ++++++   ++++++   ++++++"
"++++++   ++++++   ++++++   ++++++"
};