/* XPM */
static char *img[] = {
"33 33 4 1",
"  c black",
"% c #0088CC",
"& c #44C0FF",
"= c #FDFDFD",
"            &&&&&&&&&            "
"            &&&&&&&&&            "
"            &&&&&&&&&            "
"      &&&&&&&&&&&&&&&&&&&&&      "
"      &&&&&&&&&&&&&&&&&&&&&      "
"      &&&&&&&&&&&&&&&&&&&&&      "
"   &&&&&&&&&&&&&&&&&&&&&&&&&&&   "
"   &&&&&&&&&&&&&&&&&&&&&&&&&&&   "
"   &&&&&&&&&&&&&&&&&&&&&&&&&&&   "
"   &&&&&&======&&&&&&&&&======   "
"   &&&&&&======&&&&&&&&&======   "
"   &&&&&&======&&&&&&&&&======   "
"&&&&&&======%%%%%%&&&======%%%%%%"
"&&&&&&======%%%%%%&&&======%%%%%%"
"&&&&&&======%%%%%%&&&======%%%%%%"
"&&&&&&======%%%%%%&&&======%%%%%%"
"&&&&&&======%%%%%%&&&======%%%%%%"
"&&&&&&======%%%%%%&&&======%%%%%%"
"&&&&&&&&&======&&&&&&&&&======&&&"
"&&&&&&&&&======&&&&&&&&&======&&&"
"&&&&&&&&&======&&&&&&&&&======&&&"
"&&&&&&&&&&&&&&&&&&&&&&&&&&&&&&&&&"
"&&&&&&&&&&&&&&&&&&&&&&&&&&&&&&&&&"
"&&&&&&&&&&&&&&&&&&&&&&&&&&&&&&&&&"
"&&&&&&&&&&&&&&&&&&&&&&&&&&&&&&&&&"
"&&&&&&&&&&&&&&&&&&&&&&&&&&&&&&&&&"
"&&&&&&&&&&&&&&&&&&&&&&&&&&&&&&&&&"
"&&&&&&&&&&&&&&&&&&&&&&&&&&&&&&&&&"
"&&&&&&&&&&&&&&&&&&&&&&&&&&&&&&&&&"
"&&&&&&&&&&&&&&&&&&&&&&&&&&&&&&&&&"
"&&&&&&   &&&&&&   &&&&&&   &&&&&&"
"&&&&&&   &&&&&&   &&&&&&   &&&&&&"
"&&&&&&   &&&&&&   &&&&&&   &&&&&&"
};