/* XPM */
static char *img[] = {
"24 24 2 1",
"  c black",
"O c #2121FF",
"OOOOOOOOOOOO            "
"OOOOOOOOOOOO            "
"OOOOOOOOOOOO            "
"            OOOOOO      "
"            OOOOOO      "
"            OOOOOO      "
"                  OOO   "
"                  OOO   "
"                  OOO   "
"OOOOOOOOO         OOO   "
"OOOOOOOOO         OOO   "
"OOOOOOOOO         OOO   "
"         OOO         OOO"
"         OOO         OOO"
"         OOO         OOO"
"            OOO      OOO"
"            OOO      OOO"
"            OOO      OOO"
"            OOO      OOO"
"            OOO      OOO"
"            OOO      OOO"
"            OOO      OOO"
"            OOO      OOO"
"            OOO      OOO"
};