/* XPM */
static char *img[] = {
"24 24 2 1",
"  c black",
"$ c #FAB9B0",
"      $$$$$$$$$$$$      "
"      $$$$$$$$$$$$      "
"      $$$$$$$$$$$$      "
"   $$$$$$$$$$$$$$$$$$   "
"   $$$$$$$$$$$$$$$$$$   "
"   $$$$$$$$$$$$$$$$$$   "
"$$$$$$$$$$$$$$$$$$$$$$$$"
"$$$$$$$$$$$$$$$$$$$$$$$$"
"$$$$$$$$$$$$$$$$$$$$$$$$"
"$$$$$$$$$$$$$$$$$$$$$$$$"
"$$$$$$$$$$$$$$$$$$$$$$$$"
"$$$$$$$$$$$$$$$$$$$$$$$$"
"$$$$$$$$$$$$$$$$$$$$$$$$"
"$$$$$$$$$$$$$$$$$$$$$$$$"
"$$$$$$$$$$$$$$$$$$$$$$$$"
"$$$$$$$$$$$$$$$$$$$$$$$$"
"$$$$$$$$$$$$$$$$$$$$$$$$"
"$$$$$$$$$$$$$$$$$$$$$$$$"
"   $$$$$$$$$$$$$$$$$$   "
"   $$$$$$$$$$$$$$$$$$   "
"   $$$$$$$$$$$$$$$$$$   "
"      $$$$$$$$$$$$      "
"      $$$$$$$$$$$$      "
"      $$$$$$$$$$$$      "
};