/* XPM */
static char *_6b6ca415b4147e7c47333955932e289LNuTyazvPojJyMuy[] = {
/* columns rows colors chars-per-pixel */
"24 24 2 1 ",
"  c black",
". c #1B1BFF",
/* pixels */
"         ...            ",
"         ...            ",
"         ...            ",
"         ...            ",
"         ...            ",
"         ...            ",
"         ...            ",
"         ...            ",
"         ...            ",
"            ...         ",
"            ...         ",
"            ...         ",
"               .........",
"               .........",
"               .........",
"                        ",
"                        ",
"                        ",
"                        ",
"                        ",
"                        ",
"........................",
"........................",
"........................"
};
