/* XPM */
static char *e26031a0015b44a7a4ca2182f1641c48HK5ba8haBSgWGquH[] = {
/* columns rows colors chars-per-pixel */
"24 24 2 1 ",
"  c black",
". c #1B1BFF",
/* pixels */
"            ...         ",
"            ...         ",
"            ...         ",
"            ...         ",
"            ...         ",
"            ...         ",
"            ...         ",
"            ...         ",
"            ...         ",
"         ...            ",
"         ...            ",
"         ...            ",
".........               ",
".........               ",
".........               ",
"                        ",
"                        ",
"                        ",
"                        ",
"                        ",
"                        ",
"........................",
"........................",
"........................"
};
