/* XPM */
static char *img[] = {
"24 24 2 1",
"  c black",
"O c #2121FF",
"                        "
"                        "
"                        "
"                        "
"                        "
"                        "
"                        "
"                        "
"                        "
"               OOOOOOOOO"
"               OOOOOOOOO"
"               OOOOOOOOO"
"            OOO         "
"            OOO         "
"            OOO         "
"         OOO            "
"         OOO            "
"         OOO            "
"         OOO            "
"         OOO            "
"         OOO            "
"         OOO            "
"         OOO            "
"         OOO            "
};