/* XPM */
static char *_157159bc1ce4411e603d6923f6ea8ba6fQATBlqHBm0RDyI[] = {
/* columns rows colors chars-per-pixel */
"33 33 7 1 ",
"  c black",
". c #010000",
"X c #000100",
"o c #000001",
"O c #F7F600",
"+ c #F6F700",
"@ c #F6F601",
/* pixels */
"            OO@@@@@@@oo          ",
"            O@@O@@@@+ooo         ",
"            @@@@@@@@@ooo         ",
"            @@@O@@@@@++@@@@      ",
"            @@@@@@@O@O++@@OX     ",
"            @@@O@@@@@O++@@@X     ",
"               O@@@@@O@+O@@OOO X ",
"               O@@@O@OO+@@@@@O   ",
"    X         oO@@O@@@@@@@@@O@XX ",
"                XX@@@@@@@@@@@@ X ",
"                XX@@@@@@@@@@@@   ",
" X                O@@@@@@@@@@O   ",
"                     @@@@@@@@@@@@",
"               .     O@@@@@@@@O@@",
"               .     @@@@@@@@@@@@",
" X     X             XXXO@@O@@O@@",
"  o          X          O@@@@@@@@",
". o.X  X           X    @@@@@@@@@",
" X       .   X       @@@@@@O@@@@@",
"   .     .          XO@@@@@@@@@@@",
".X   o   . o      X  @@@@@@@@@O@O",
".                 @@@O@@@@@@@@XX ",
"  o     o X  X    O@@@@@@@@@@@   ",
"   .X             O@@@@@@@@@@@   ",
"   .         X @@@@@@@@@@@@@@@XX ",
"               @@@@@@@@@@@@O@@   ",
"       X       @@@@@@@@@@@@O@@ X ",
"      .     OOOO@@@@@@@@@@@X     ",
" X  X       O@@O@@@@@@@@@@O X  X ",
".X          O@@@@@@@@@@@@@O X    ",
" X .      XX@@@@@@@@O   X        ",
"          XX@@@@@@@@O       X    ",
"    X     X OOO@@@@@@ X          "
};
