/* XPM */
static char *pacman_t_31678738883[] = {
/* columns rows colors chars-per-pixel */
"33 33 7 1 ",
"  c black",
". c #010000",
"X c #000100",
"o c #000001",
"O c #F7F600",
"+ c #F6F700",
"@ c #F6F601",
/* pixels */
"              o      .X    .     ",
"              o  o   .X      o X ",
"                 o X  X  X  X    ",
"              o    X .       o   ",
"                  . o   .        ",
"                  .        .     ",
"          X  X    .    o X  Xo.  ",
"          X       .  .   X  Xo   ",
"                         Xo.X    ",
"                          o.   X ",
"                        .  .Xo   ",
"                         X       ",
"@@@@@@                   oo@++++@",
"@@@@@@       X           oo@++O+@",
"@@@@@@                    oO@@OO@",
"++@@@@@@+               @@@@@OOO@",
"@@@@@@@@@               @@@@@@@@@",
"@@@@@@@@@  .     o   .  +@@@@@@@@",
"@@@@@@@@@@+@      . .@@@+@@@@@@@@",
"@@@@@@@@@@++     o  .@@@@@@@@@@@@",
"@@@@@@@@@@@@.     .. +@@@@@@@@@@@",
"...@@@@@@@@@@@@  o@@@@@@+@@@@@.. ",
"   @@@@@@+@@@@@. o++@@@@@@@@@+   ",
"   @@@@@@+@@@@@.  ++@@@@@@@@@+   ",
"   +@@@@@@@@@@@@@@@@++@@@@@@@@.. ",
"   ++@@@@@@@@@@@@@@@@+@@@@@@@@ . ",
"   +@@@@@@@@@@@@@@@@@@@@@@@@@@   ",
"   ...O@@+@@@@@@@@@@@@@@@@@.     ",
"    . @@@@@@@@@@@@@@@@@@+++      ",
"      @@@+@@@@@@@@+@@@@@+++      ",
"          ..@@@O@@++@.  .        ",
" X         .@@@@@@+++            ",
" X        X ++++++@@@..          "
};
