/* XPM */
static char *img[] = {
"33 33 2 1",
"  c black",
"@ c #F6F600",
"            @@@@@@@@@            "
"            @@@@@@@@@            "
"            @@@@@@@@@            "
"      @@@@@@@@@@@@@@@@@@@@@      "
"      @@@@@@@@@@@@@@@@@@@@@      "
"      @@@@@@@@@@@@@@@@@@@@@      "
"   @@@@@@@@@@@@@@@@@@@@@@@@@@@   "
"   @@@@@@@@@@@@@@@@@@@@@@@@@@@   "
"   @@@@@@@@@@@@@@@@@@@@@@@@@@@   "
"   @@@@@@@@@@@@@@@@@@@@@@@@@@@   "
"   @@@@@@@@@@@@@@@@@@@@@@@@@@@   "
"   @@@@@@@@@@@@@@@@@@@@@@@@@@@   "
"@@@@@@@@@@@@@@@@@@@@@            "
"@@@@@@@@@@@@@@@@@@@@@            "
"@@@@@@@@@@@@@@@@@@@@@            "
"@@@@@@@@@@@@@@@                  "
"@@@@@@@@@@@@@@@                  "
"@@@@@@@@@@@@@@@                  "
"@@@@@@@@@@@@@@@@@@@@@            "
"@@@@@@@@@@@@@@@@@@@@@            "
"@@@@@@@@@@@@@@@@@@@@@            "
"   @@@@@@@@@@@@@@@@@@@@@@@@@@@   "
"   @@@@@@@@@@@@@@@@@@@@@@@@@@@   "
"   @@@@@@@@@@@@@@@@@@@@@@@@@@@   "
"   @@@@@@@@@@@@@@@@@@@@@@@@@@@   "
"   @@@@@@@@@@@@@@@@@@@@@@@@@@@   "
"   @@@@@@@@@@@@@@@@@@@@@@@@@@@   "
"      @@@@@@@@@@@@@@@@@@@@@      "
"      @@@@@@@@@@@@@@@@@@@@@      "
"      @@@@@@@@@@@@@@@@@@@@@      "
"            @@@@@@@@@            "
"            @@@@@@@@@            "
"            @@@@@@@@@            "
};