/* XPM */
static char *img[] = {
"33 33 2 1",
"  c #000000",
"@ c #F6F600",
"                                 "
"            @@@@@@@@@            "
"            @@@@@@@@@            "
"      @@@@@@@@@@@@@@@@@@@@@      "
"      @@@@@@@@@@@@@@@@@@@@@      "
"      @@@@@@@@@@@@@@@@@@@@@      "
"   @@@@@@@@@@@@@@@@@@@@@@@@@@@   "
"   @@@@@@@@@@@@@@@@@@@@@@@@@@@   "
"   @@@@@@@@@@@@@@@@@@@@@@@@@@@   "
"   @@@@@@@@@@@@@@@@@@@@@         "
"   @@@@@@@@@@@@@@@@@@@@@         "
"   @@@@@@@@@@@@@@@@@@@@@         "
" @@@@@@@@@@@@@@@@@               "
" @@@@@@@@@@@@@@@@@               "
" @@@@@@@@@@@@@@@@@               "
" @@@@@@@@@@@                     "
" @@@@@@@@@@@                     "
" @@@@@@@@@@@                     "
" @@@@@@@@@@@@@@@@@               "
" @@@@@@@@@@@@@@@@@               "
" @@@@@@@@@@@@@@@@@               "
"   @@@@@@@@@@@@@@@@@@@@@         "
"   @@@@@@@@@@@@@@@@@@@@@         "
"   @@@@@@@@@@@@@@@@@@@@@         "
"   @@@@@@@@@@@@@@@@@@@@@@@@@@@   "
"   @@@@@@@@@@@@@@@@@@@@@@@@@@@   "
"   @@@@@@@@@@@@@@@@@@@@@@@@@@@   "
"      @@@@@@@@@@@@@@@@@@@@@      "
"      @@@@@@@@@@@@@@@@@@@@@      "
"      @@@@@@@@@@@@@@@@@@@@@      "
"            @@@@@@@@@            "
"            @@@@@@@@@            "
"                                 "
};
