/* XPM */
static char *_6d08450b5344c90c8dc220c52885d9eFOq5687iqILWDwWq[] = {
/* columns rows colors chars-per-pixel */
"33 33 6 1 ",
"  c black",
". c #010000",
"X c #000100",
"o c #F7F600",
"O c #F6F700",
"+ c #F6F601",
/* pixels */
"            oo++o++++            ",
"            OO++O++O+            ",
"          ..O+++O++O+            ",
"      OOooo+++++++++++O+++o      ",
"      OO++++++++O++++++++++      ",
"      OO+++++++++++O+++++O+      ",
"   +O+OO+++++++++++o++++++++Oo   ",
"   +++++++++++++O+++++++++OOOo   ",
"   O+++++ooo++++o+++++++++++o+   ",
"        .oOO++++O++++++O++++O+   ",
"         +OO++++O+++++oo++++++   ",
"         +++++++++++++o+++++++   ",
"               +O++++++++++++++O+",
"               o+++++++++O+++++++",
"               ++++O++++++++O++++",
"                     ++++++++++++",
"                     ++++o+++++++",
"                     +++Oo+++++++",
"               +++O+++O++O+++++++",
"               O+++++++++++++++++",
"               o++++++O++++++O+OO",
" X       oOO++oo++++++++++++oo   ",
"         +O+++++o++O+++O++++++   ",
"         +++++++O++O++oo++++++   ",
"   ooo+++++++++++++++++++o++o+   ",
"   oooo+++++++++++++++++Oo++O+   ",
"   o++++++++++++++++++++++++OO   ",
"    XX++++++++++o++++++++++      ",
"      OO++++Oo++o++++++++++      ",
"      +++++++o++oO+++++++Oo      ",
"            +++++++++            ",
"            ++++++++O            ",
"            O++++++O+            "
};
