/* XPM */
static char *pacman_t_21678738884[] = {
/* columns rows colors chars-per-pixel */
"33 33 7 1 ",
"  c black",
". c #010000",
"X c #000100",
"o c #000001",
"O c #F7F600",
"+ c #F6F700",
"@ c #F6F601",
/* pixels */
"               .       o         ",
"                     .   X       ",
"               .         Xo      ",
"      ++O         .     OOOX    o",
"      ++@.          o   ++O      ",
"      ++@        o      +++X     ",
"   +++++@.              @++OOO   ",
"   @++++@   .          oO+++OO  o",
"   +@@@@@               @@@@+@  o",
"   +@@@@@@O@         ++@@@@O@@   ",
"   +@@@@++O+         O+@@@@@++   ",
"   +@@@@+O++         +@@@@@@+O   ",
"++@@@@@@+@+@         +++@+@@+@@@+",
"+++@@@@@@@@@         O++@@@O++@@@",
"+@@@@@@+@@+@         O@@@+@@@@O@@",
"@@@@@@@@@@@@@@O   ++@@@@@@@@+@@@+",
"@@@@@@@@@@@@+++   O+@@@@@@@@@@@@+",
"O@@@+@@@@O+@@++   ++@@@@O@@O@@@@@",
"@@@@+@@@@O@@@@+   ++@@@@@@@@@@@@+",
"@@@@@@@@@@@@@@+   ++@@@@O@@@@@@@+",
"@O+++@@@@O@@@@@   @@@O@@@@@@+@O@O",
"   +@@@@@@@@@+@O++@@@@@@O@@@@@   ",
"   +@@@@@O+@@+@@++++@@@@@@++++   ",
"   O@@O@@O@@@@@O++@@@@@@@@+O+O   ",
"   +++++@@@@@@@@@@@@@@@@@@@@@@   ",
"   +++@@@@@@@@@O@@@@@@@@@@+++@   ",
"   O++@@@@@@@+@@@@@+@@@@@@@++O   ",
"      @@@@+@@@@@@@@@@O+@O@@      ",
"      +++++@@@@@+@@@++@@++O      ",
"      O+++@@@+@@@@@@++@@+++      ",
"            @@@@@@@@+            ",
"            @@@@@@@++            ",
"            OOOO+++++X           "
};
