/* XPM */
static char *_b63750a678c4deb839478d015a4ed9ecRG4v0IZY3mB1ikK[] = {
/* columns rows colors chars-per-pixel */
"33 33 7 1 ",
"  c black",
". c #010000",
"X c #000100",
"o c #000001",
"O c #F7F600",
"+ c #F6F700",
"@ c #F6F601",
/* pixels */
"            OO@@@@@@+           o",
"            ++@@@@@@+            ",
"            +++@@@@@+            ",
"      ++OOO@++++@@@O+OO@OOO      ",
"      ++@@@@@@@@@@@@@@@@+++     o",
"      ++@@@@@@@@@@@@@@@@+++      ",
"   +++++@@@@@@@@@@@@@@@@++++OO   ",
"   @++++@@@@@@@@@@@@@@@@@++++O   ",
"   +@@@@@@@@+@@@@@@@@@++@@@@@@  o",
"   @@@@@@@@@++@@@@@+@@@+@@@@@@   ",
"   +@@@@@@@@+++O@@@@@@O+@@@@O@  X",
"   @@@@@@@@@+++OO@@@@@O@@@@@O@  X",
"@O@@@@@@@@@@@@O   ++@@@@@@@@O++++",
"@+@@@@@+@@@@@@O   ++@@O@@@@@O++++",
"O++@@@@+@@@@@@@   ++@@@@@@@@@@+@+",
"++++@@@@@@@@@@@   ++@@@@@@@@@@@@O",
"@@@@@@O@++++OO@   +++++@@+@@@@@@O",
"@@@@+@O@@++@OOO   @+O@+@@@@@@@@@O",
"@@@O+@@@@@++X        @@@@@@@@@@@O",
"@@@@@@@@@O++  o      @+@@@@@@@@@O",
"@O++@@@@@@@@         @@@@+@@@@@@@",
"   O@@@@@O@@  o      O@+@@@+@@   ",
"   +@@@+@@@@         +++@@+++O   ",
"   O@@@@@@@@         +++@@+++O   ",
"   +++++@     o         @@+++@   ",
"   O++O@O    Xo         @@+O@@   ",
"   O++O@O               @@@O@@   ",
"      O@O    X          @@@      ",
"      ++O               ++@      ",
"      ++O               +OO      ",
"                                 ",
"        o                        ",
"                                 "
};
