/* XPM */
static char *_ba62cd514244c35a1e2aec0eabdb0adZl3vQQCz74gMZK5L[] = {
/* columns rows colors chars-per-pixel */
"33 33 6 1 ",
"  c black",
". c #000100",
"X c #000001",
"o c #F7F600",
"O c #F6F700",
"+ c #F6F601",
/* pixels */
"            oo+o++++o           X",
"            oo+o++++o            ",
"            ooo+++++O            ",
"      ooOOO+ooo+++++OOO+ooO      ",
"      oo+++++++++++++O++ooo      ",
"      oo++++++++++++++++ooo      ",
"   ooooo++++++++++++++++oooooO   ",
"   o+ooo+++++++++++++++++ooooO   ",
"   o+o++++++++++++++oO+++++o++   ",
"   o+++++o++o+++++o+++++++++++   ",
"   o++++++++++oo++oo++++++++++   ",
"   o+++++++++ooO++O++o+++++oO+   ",
"oo++++o++++++++O+++++++++++++OOoo",
"oo++++++++++++O++++++o++++++OOooo",
"o++++++++o++++++oo++++++++++++ooo",
"oo++o++++++++++   +++o+++++o++o+o",
"++++++O+++++ooO   +O+++++++O++OOO",
"++++++o+++++ooO   O+++++++++++oOO",
"++++++++++o+ooO   oo++++++++++o+O",
"++++++++++ooooO   oo++++++++++++O",
"+OOo+++++++++++   Oooooo+++o++++O",
"   o++Oo++++  .      oooO++o++   ",
"   o++++++++         oOoOooooO   ",
"   o++++++++         oOo+oooo+   ",
"   oOooo++++         ++o+++o++   ",
"   ooooo+o++         ++o++oo++   ",
"   ooO++o+oo         Ooo+++o++   ",
"      O+oooo         oooo++      ",
"      ooOOoo         oooooO      ",
"      oOOOOo         OOooOO      ",
"                                 ",
"                                 ",
"                                 "
};
