/* XPM */
static char *pacman_t_11678738884[] = {
/* columns rows colors chars-per-pixel */
"33 33 5 1 ",
"  c #010000",
". c #000100",
"X c #F7F600",
"o c #F6F700",
"O c #F6F601",
/* pixels */
"                                 ",
"                                 ",
"                                 ",
"      OOOOOO         OOOOOO      ",
"      OOOOoO         oOOOOO      ",
"      OOOOOO         oOOOoO      ",
"   OoOOOOOOo         ooOOOOOOo   ",
"   OOOOOOOoo         oOOOOOOOo   ",
"   oOOOOOOOO         OOOOoOOOO   ",
"   ooOOoOOOO         OOOOoOOOO   ",
"   OOOOOOOoO         OoOOOOOoo   ",
"   OoOOOOOOO         OOOOoOOOo   ",
"oOOOOOOOOOOOOoO   ooOOOOOOOOOOOOO",
"OoOOoOOoOOOOOOO   OoOOOOOoOOoOOOO",
"OOOOOOOOOOOOOOO   OOOOOOOOOOOOOOO",
"OOOOOOOOOOOOOoO   OOOOOOOOOOOOOoO",
"OOOOOOOOOOOOOOO   ooOOOOOOOOOOOOO",
"OOOOOOXOOOOOOoO   OoOOOOOOOOOOOOO",
"OOOOOOOOOXOOOOOXOOOOOOOOOOOOOOOOO",
"OoOOoOOoOOOOOoOOOOOoOOOOOOOOOOOoO",
"OoOOOOOOOXOOOOOOoOOOOOOOOOOOOOOOo",
"   OOOOoOOOOOOOOoOOoOOOOOOOOOO   ",
"   OoOXOOOoOOOOOOOOOOOOOOoOOOO   ",
"   OOOOOOOOOOOOOOOOoOOOOOOOOOo   ",
"   OOOOOOOoOOoOXOOOOOOOOOOOXOO   ",
"   oOOOOOOOOOOOXOOOoOOOOOOOOOO   ",
"   oOOOOOOOOOoOOoOOOOOOOOOOXoo   ",
"      OoOOOOOoOOOOOOOOOOOOO      ",
"      OoOOOOOOOOOOOOOOoOOOo      ",
"      OOOOOOOOOOOOOoOOoOOoo      ",
"            OOOXOOOOO            ",
"            OOOOoOXOO            ",
"            oooOOOOOO            "
};
