/* XPM */
static char *_b9089c7f4e3450c854f3504533597a7nluaZ5DjyDo81eNP[] = {
/* columns rows colors chars-per-pixel */
"33 33 7 1 ",
"  c black",
". c #010000",
"X c #000100",
"o c #000001",
"O c #F7F600",
"+ c #F6F700",
"@ c #F6F601",
/* pixels */
"            @@+++@O@+            ",
"            O@++++O@+            ",
"            OOOO@@@@+            ",
"      ++@@@@OOOO+@@@+++@@@@     o",
"      ++@@@@@@@@@@@@@@@@@@@      ",
"      ++@@@@@@@@@@@@@@@@@@@      ",
"   @@@++@@@@@@@@@@@@@O@@@@++++  o",
"   @@@++@@@@@@@@@@@+@O@@@@+++O   ",
"   @@@@@@@@@@@@@O@@@@@@@@@@@@@   ",
"   @@@@@@@@@@@O   @@@@@@@@@@@@  o",
"   @+@+O@@@@@@@   @@@@@@@@@@@@   ",
"   @+++O@@@@@@@   @@@@@@@@@@@@   ",
"@@@@@@OO@@@@         @@@@@@@O++++",
"@@@@@@@@@@@@         @O@@@@@OO@+@",
"@@@@@@@@@@@@         @@@@@@@@@@@+",
"@@@@@@@@@               @@@@@@@@+",
"@@@@++OOO.          o  oOO++++@@+",
"@@@@+++OO   .   X  X    OO++++@@+",
"@@@@++ X  X     X          +@@@@O",
"@@@+++                    oO@@@@@",
"O+++OO  o X                @++++O",
"XX XX       . o             X    ",
"    Xo     o   .                 ",
"     o X    .   X               o",
"          X     X               o",
"     o  o      .                 ",
"             Xo X                ",
"     o   .    o X                ",
"                 o              o",
"         .         X             ",
"     o     o.                    ",
"           o  o    X             ",
"                          o     o"
};
