/* XPM */
static char *_21e2fe29ba748d3ecf6de74b6bc7604w8k6J9POOalJLotp[] = {
/* columns rows colors chars-per-pixel */
"33 33 6 1 ",
"  c black",
". c #000100",
"X c #000001",
"o c #F7F600",
"O c #F6F700",
"+ c #F6F601",
/* pixels */
"            oo++++++o            ",
"            OO+OO++++            ",
"            oOOO++++O           X",
"      OOooo+OOOO++++OOO++oO      ",
"      OO+++++++++++oO+O+OOO      ",
"      OO++++++++++++++O+OOO      ",
"   +OOOO+++++++++++O++++OOOoOo   ",
"   OOOOO+++++++++++o++O+OOOOOo   ",
"   +OOOOO+O+++++++++++++++++O+   ",
"   +OOOOOO+++o++++++++++++++O+   ",
"   +oOo++++++++++++++++++O++OO   ",
"   +ooo++++++++O+++++++++o++OO   ",
"            OOOO+++++++++O++O++++",
"            OOOO+++++++++++++++++",
"            O+oOOo+o++++++++O++o+",
"                  +O++O+++++++OOO",
"                  OO++++++++++++O",
"                  OO++++++++++++O",
"            +o++O+OO++o+++++++++O",
"            Oo+++++++++++++++++++",
"            +O++++++++++++OO+oooO",
"   +++oOoOOo+O++++++++++++Oooo   ",
"   ++++O+OOO++++O+++++++++OOOo  X",
"   o+++O+OOOOo++++++++++OoOOOo   ",
"   OOOOO+++++++++++O++++++OOO+   ",
"   oOOOO++O++O+++++o++++++Oo++   ",
"   oOOOO++++++++O++++++++++oOO   ",
"      oO+++O++++++++++OO+o+      ",
"      OOoOOO++++O+++OOOOoo+     X",
"      oOooOO++++O+++OoOOo++      ",
"            ++++++++O            ",
"            +o++++++O            ",
"            oooOOOOOO           X"
};
