/* XPM */
static char *img[] = {
"33 33 4 1",
"  c black",
"$ c #FF59BA",
"* c #FFA9DB",
"= c #FDFDFD",
"            *********            "
"            *********            "
"            *********            "
"      $$$$$$*********$$$$$$      "
"      $$$$$$*********$$$$$$      "
"      $$$$$$*********$$$$$$      "
"   ===$$$$$$===***===$$$$$$===   "
"   ===$$$$$$===***===$$$$$$===   "
"   ===$$$$$$===***===$$$$$$===   "
"   ============***============   "
"   ============***============   "
"   ============***============   "
"******======*********======******"
"******======*********======******"
"******======*********======******"
"*********************************"
"*********************************"
"*********************************"
"*********************************"
"*********************************"
"*********************************"
"*********************************"
"*********************************"
"*********************************"
"*********************************"
"*********************************"
"*********************************"
"*********************************"
"*********************************"
"*********************************"
"******   ******   ******   ******"
"******   ******   ******   ******"
"******   ******   ******   ******"
};